<svg width="64" height="64" viewBox="0 0 100 100" fill="none" xmlns="http://www.w3.org/2000/svg">
  <!-- Plate 1: Left -->
  <path d="M30 20 L50 30 L50 70 L30 80 L10 70 V30 L30 20 Z" fill="#81b5ff"/>
  <path d="M30 20 L30 80" stroke="#ffffff" strokeWidth="1" strokeOpacity="0.4"/>
  <path d="M10 30 L30 40 L50 30" stroke="#ffffff" strokeWidth="1" strokeOpacity="0.4"/>

  <!-- Plate 2: Right Top -->
  <path d="M70 20 L90 30 V50 L70 60 L50 50 V30 L70 20 Z" fill="#93a2ff"/>
  <path d="M50 30 L70 40 L90 30" stroke="#ffffff" strokeWidth="1" strokeOpacity="0.4"/>

  <!-- Plate 3: Right Bottom -->
  <path d="M70 60 L90 70 V90 L70 80 L50 90 V70 L70 60 Z" fill="#6bcaff"/>
  <path d="M50 70 L70 80 L90 70" stroke="#ffffff" strokeWidth="1" strokeOpacity="0.4"/>

  <!-- Central Core -->
  <circle cx="50" cy="50" r="8" fill="#ffffff"/>
  
  <!-- Connecting Data Streams -->
  <path d="M30 40 L50 50" stroke="#ffffff" strokeWidth="2" strokeLinecap="round" strokeOpacity="0.8"/>
  <path d="M70 40 L50 50" stroke="#ffffff" strokeWidth="2" strokeLinecap="round" strokeOpacity="0.8"/>
  <path d="M70 80 L50 50" stroke="#ffffff" strokeWidth="2" strokeLinecap="round" strokeOpacity="0.8"/>
</svg>
